<svg width="31" height="23" viewBox="0 0 31 23" fill="none" xmlns="http://www.w3.org/2000/svg">
<g clip-path="url(#clip0_172_1373)">
<path d="M12.4004 0H31.0004V23H12.4004V0Z" fill="#FF0000"/>
<path d="M0 0H12.4V23H0V0Z" fill="#006600"/>
<path fill-rule="evenodd" clip-rule="evenodd" d="M16.4449 14.6734C14.8804 14.6255 7.72617 10.2076 7.67773 9.49844L8.07008 8.85156C8.78211 9.87219 16.0962 14.1703 16.8179 14.017L16.4449 14.6734Z" fill="#FFFF00"/>
<path fill-rule="evenodd" clip-rule="evenodd" d="M7.98757 8.76042C7.8471 9.13417 9.85726 10.3608 12.2694 11.8175C14.6865 13.2694 16.7693 14.1654 16.9194 14.0408L16.9921 13.9067C16.963 13.9546 16.8952 13.969 16.7838 13.9354C16.1299 13.7485 14.4298 12.9771 12.3227 11.7121C10.2109 10.4471 8.37992 9.28271 8.09414 8.78917C8.07186 8.7429 8.06186 8.69178 8.06507 8.64062H8.05539L7.99726 8.74604L7.98757 8.76042ZM16.4787 14.6925C16.4544 14.7404 16.4012 14.7404 16.3091 14.7308C15.7279 14.6685 13.9551 13.8156 11.8577 12.5746C9.41648 11.1275 7.40148 9.81458 7.62429 9.46958L7.68242 9.36417L7.6921 9.36896C7.49835 9.95354 11.6688 12.311 11.9159 12.4644C14.328 13.9402 16.3624 14.8075 16.5416 14.5823L16.4787 14.6925Z" fill="#FFFF00"/>
<path fill-rule="evenodd" clip-rule="evenodd" d="M12.4104 9.92807C13.9701 9.9137 15.8979 9.71724 17.012 9.27641L16.7698 8.89307C16.1159 9.25245 14.1784 9.49203 12.3959 9.52557C10.2937 9.50641 8.80664 9.30995 8.0607 8.81641L7.83789 9.22849C9.20383 9.80349 10.6085 9.92328 12.4104 9.92807Z" fill="#FFFF00"/>
<path fill-rule="evenodd" clip-rule="evenodd" d="M17.0743 9.28615C17.0355 9.34844 16.309 9.59281 15.2434 9.7749C14.304 9.91572 13.355 9.9846 12.4049 9.98094C11.4946 9.98432 10.5852 9.92668 9.68273 9.80844C8.56383 9.63594 7.98742 9.39635 7.76945 9.3101L7.82273 9.20469C8.43789 9.44427 9.01914 9.58802 9.69727 9.69344C10.5931 9.8131 11.4961 9.87233 12.4001 9.87073C13.3453 9.87171 14.2892 9.80284 15.224 9.66469C16.3138 9.4874 16.9096 9.26219 16.9968 9.16156L17.0743 9.29094V9.28615ZM16.8612 8.89802C16.7449 8.99385 16.154 9.1999 15.1174 9.36281C14.2223 9.49092 13.319 9.55498 12.4146 9.55448C11.349 9.55448 10.4723 9.47781 9.80867 9.38198C8.75273 9.24781 8.19086 8.99865 7.98742 8.93156L8.05039 8.82615C8.21023 8.9076 8.74789 9.12323 9.81836 9.27177C10.6789 9.3858 11.5464 9.44023 12.4146 9.43469C13.3126 9.43496 14.2094 9.37091 15.098 9.24302C16.1395 9.09927 16.7013 8.84052 16.7885 8.77344L16.8612 8.89802ZM7.28023 11.7874C8.2393 12.3001 10.3754 12.5541 12.3952 12.5732C14.2359 12.578 16.6287 12.2953 17.5248 11.8257L17.5005 11.313C17.2196 11.7443 14.6524 12.1611 12.3759 12.1468C10.0993 12.1276 7.98258 11.7826 7.27539 11.3322V11.7874" fill="#FFFF00"/>
<path fill-rule="evenodd" clip-rule="evenodd" d="M17.5737 11.716V11.8358C17.4381 11.9987 16.5953 12.2383 15.5393 12.4108C14.4903 12.56 13.4313 12.6305 12.3715 12.6217C11.3666 12.6301 10.3625 12.5612 9.3684 12.4156C8.62661 12.3308 7.90175 12.137 7.21777 11.8406V11.7017C7.68762 12.0083 8.95668 12.2383 9.38293 12.3054C10.1482 12.4204 11.1315 12.5067 12.3715 12.5067C13.6745 12.5067 14.7159 12.4156 15.52 12.2958C16.2804 12.1856 17.3606 11.9029 17.5737 11.716ZM17.5737 11.2848V11.4046C17.4381 11.5627 16.5953 11.8023 15.5393 11.9748C14.4904 12.1256 13.4314 12.1976 12.3715 12.1904C11.3667 12.1963 10.3628 12.1274 9.3684 11.9844C8.62661 11.8996 7.90175 11.7058 7.21777 11.4094V11.2656C7.68762 11.5771 8.96152 11.8023 9.38293 11.8694C10.3724 12.0128 11.3715 12.0816 12.3715 12.0754C13.6745 12.0754 14.7207 11.9796 15.52 11.8598C16.2804 11.7544 17.3606 11.4717 17.5737 11.2848ZM12.3909 14.5815C10.1821 14.5719 8.28824 13.9873 7.88621 13.8915L8.17684 14.3419C9.53546 14.8179 10.9691 15.0499 12.4103 15.0271C14.0911 14.9792 15.5587 14.8498 16.5904 14.3515L16.8907 13.8819C16.1884 14.2125 13.7907 14.5815 12.3861 14.5815" fill="#FFFF00"/>
<path fill-rule="evenodd" clip-rule="evenodd" d="M16.7065 14.2468C16.6624 14.3114 16.6172 14.3753 16.5709 14.4384C16.0865 14.6109 15.3115 14.793 14.9918 14.8409C14.134 14.9991 13.2633 15.0793 12.3907 15.0805C10.4338 15.0518 8.83055 14.6732 8.07977 14.3474L8.0168 14.2468L8.02648 14.2276L8.1282 14.2707C9.50675 14.722 10.9484 14.9565 12.4004 14.9655C13.311 14.9655 14.2168 14.8649 14.9482 14.7355C16.072 14.5103 16.5273 14.3426 16.6677 14.2659L16.7016 14.2468H16.7065ZM16.9632 13.8251C16.9313 13.8812 16.899 13.9371 16.8663 13.9928C16.6048 14.0886 15.8976 14.2899 14.8659 14.4336C14.1877 14.5247 13.7663 14.6157 12.4149 14.6397C10.8701 14.6243 9.33471 14.3986 7.85211 13.9689L7.79883 13.8491C9.30516 14.2609 10.8573 14.4862 12.4198 14.5199C13.6549 14.4959 14.1829 14.4049 14.8562 14.3139C16.0574 14.1318 16.6629 13.9305 16.8421 13.8778C16.8422 13.8746 16.8422 13.8714 16.8421 13.8682L16.968 13.8203L16.9632 13.8251Z" fill="#FFFF00"/>
<path fill-rule="evenodd" clip-rule="evenodd" d="M16.992 11.385C16.9968 12.8225 16.2509 14.1163 15.6551 14.6817C14.7751 15.5306 13.6 16.0142 12.371 16.0329C10.9034 16.0569 9.5229 15.1129 9.14993 14.696C8.31556 13.8207 7.84068 12.6694 7.8179 11.4665C7.90509 9.89479 8.52993 8.80229 9.43087 8.05C10.3061 7.33727 11.407 6.95218 12.5406 6.96229C13.2023 6.99403 13.85 7.16216 14.4422 7.45591C15.0344 7.74966 15.5581 8.16255 15.9796 8.66812C16.5851 9.39646 16.8515 10.1871 16.992 11.385ZM12.3807 6.46875C13.7357 6.46871 15.0359 6.99857 15.9976 7.94283C16.9594 8.88708 17.5049 10.1692 17.5151 11.5096C17.5151 12.1747 17.3827 12.8333 17.1254 13.4478C16.8681 14.0623 16.4909 14.6206 16.0155 15.0909C15.5401 15.5612 14.9757 15.9343 14.3545 16.1888C13.7334 16.4434 13.0676 16.5744 12.3952 16.5744C11.7229 16.5744 11.0571 16.4434 10.436 16.1888C9.8148 15.9343 9.25039 15.5612 8.77497 15.0909C8.29954 14.6206 7.92242 14.0623 7.66512 13.4478C7.40783 12.8333 7.2754 12.1747 7.2754 11.5096C7.27055 8.73042 9.56649 6.46875 12.3807 6.46875Z" fill="#FFFF00"/>
<path fill-rule="evenodd" clip-rule="evenodd" d="M12.3953 6.44531C15.2144 6.44531 17.5103 8.71656 17.5103 11.5053C17.5103 14.2941 15.2144 16.5653 12.4002 16.5653C9.58594 16.5653 7.28516 14.2941 7.28516 11.5053C7.28516 8.71656 9.58109 6.44531 12.4002 6.44531H12.3953ZM7.39172 11.5005C7.39172 14.2222 9.65375 16.4503 12.3953 16.4503C15.1369 16.4503 17.3989 14.2222 17.3989 11.5005C17.3989 8.77885 15.1369 6.55073 12.3953 6.55073C9.65375 6.55073 7.39172 8.77885 7.39172 11.5005Z" fill="#FFFF00"/>
<path fill-rule="evenodd" clip-rule="evenodd" d="M12.4007 6.86719C13.6418 6.87098 14.8309 7.36037 15.7085 8.22851C16.5861 9.09665 17.0808 10.273 17.0846 11.5007C17.0808 12.7289 16.5862 13.9058 15.7088 14.7747C14.8314 15.6436 13.6422 16.134 12.4007 16.1391C9.83352 16.1391 7.7168 14.0499 7.7168 11.5007C7.7219 10.2734 8.21702 9.09776 9.09432 8.22989C9.97162 7.36203 11.16 6.87223 12.4007 6.86719ZM7.8282 11.5007C7.8282 13.9924 9.89164 16.0241 12.4007 16.0241C14.9098 16.0241 16.9732 13.9876 16.9732 11.5007C16.9732 9.00906 14.9098 6.9774 12.4007 6.9774C11.1896 6.98244 10.0295 7.46062 9.17309 8.30782C8.31668 9.15502 7.8333 10.3026 7.8282 11.5007Z" fill="#FFFF00"/>
<path fill-rule="evenodd" clip-rule="evenodd" d="M12.6087 6.42188H12.168V16.5946H12.6039L12.6087 6.42188Z" fill="#FFFF00"/>
<path fill-rule="evenodd" clip-rule="evenodd" d="M12.56 6.36328H12.6714V16.651H12.5648V6.36328H12.56ZM12.124 6.36328H12.2403V16.651H12.1289V6.36328H12.124Z" fill="#FFFF00"/>
<path fill-rule="evenodd" clip-rule="evenodd" d="M17.5159 11.7014V11.3276L17.2059 11.0401L15.4477 10.5801L12.9192 10.3262L9.86766 10.4795L7.69766 10.9874L7.26172 11.3085V11.687L8.37094 11.1935L11.0059 10.7862H13.5392L15.3992 10.9874L16.6877 11.2941L17.5159 11.7014Z" fill="#FFFF00"/>
<path fill-rule="evenodd" clip-rule="evenodd" d="M12.4006 10.7243C13.6067 10.7243 14.774 10.8345 15.7089 11.0118C16.6679 11.2034 17.3412 11.443 17.5737 11.7065V11.8407C17.2928 11.5053 16.387 11.2657 15.6846 11.122C14.7643 10.9495 13.6018 10.8345 12.3957 10.8345C11.1315 10.8345 9.94965 10.959 9.03902 11.1315C8.31246 11.2753 7.33887 11.5628 7.21777 11.8407V11.7018C7.28074 11.5101 8.0073 11.2226 9.02449 11.0165C9.93996 10.8393 11.1218 10.7243 12.3957 10.7243H12.4006ZM12.4006 10.2882C13.5098 10.286 14.617 10.3822 15.7089 10.5757C16.6679 10.7674 17.3412 11.007 17.5737 11.2753V11.4047C17.2928 11.074 16.387 10.8297 15.6846 10.6907C14.7643 10.5134 13.6018 10.4032 12.3957 10.4032C11.2716 10.3997 10.1495 10.4991 9.04387 10.7003C8.34152 10.8297 7.32918 11.1268 7.21777 11.4047V11.2705C7.28559 11.0788 8.02184 10.777 9.02449 10.5853C9.9448 10.408 11.1218 10.2882 12.4006 10.2882ZM12.3715 8.07446C14.2751 8.06488 15.9365 8.338 16.697 8.72134L16.9731 9.2005C16.3143 8.84592 14.5221 8.48175 12.3764 8.52967C10.6278 8.54405 8.75809 8.72134 7.82324 9.21967L8.15262 8.67342C8.92277 8.27571 10.7343 8.07446 12.3715 8.07446Z" fill="#FFFF00"/>
<path fill-rule="evenodd" clip-rule="evenodd" d="M12.4003 8.46831C13.3942 8.45172 14.3877 8.52066 15.3695 8.67435C16.1445 8.8181 16.8856 9.02893 16.9922 9.14393L17.0745 9.28768C16.8178 9.12477 16.1736 8.93789 15.3502 8.78456C14.5267 8.63122 13.4756 8.57852 12.3955 8.58331C11.17 8.57852 10.2158 8.64081 9.40203 8.78456C8.84108 8.86233 8.29644 9.02898 7.78906 9.2781L7.87141 9.12956C8.16203 8.98581 8.6125 8.80851 9.37781 8.66956C10.2255 8.51622 11.1894 8.4731 12.4003 8.46831ZM12.4003 8.03706C13.4369 8.02747 14.4638 8.08497 15.263 8.22872C15.7808 8.30477 16.2819 8.46677 16.7452 8.70789L16.8663 8.89956C16.6628 8.67435 15.8975 8.45872 15.2145 8.34372C14.4202 8.20477 13.4369 8.15206 12.4003 8.14247C11.4354 8.13396 10.4714 8.20448 9.51828 8.35331C9.0199 8.42201 8.53585 8.56922 8.08453 8.78935L8.19109 8.63122C8.47203 8.48747 8.92734 8.35331 9.49891 8.2431C10.4583 8.09232 11.4289 8.0218 12.4003 8.03227V8.03706ZM14.9384 13.6098C14.0989 13.466 13.2474 13.4018 12.3955 13.4181C9.22281 13.4564 8.20078 14.065 8.07484 14.2471L7.83266 13.8637C8.64641 13.2887 10.3708 12.9629 12.4148 12.9916C13.4756 13.0108 14.3911 13.0827 15.1564 13.2312L14.9384 13.6146" fill="#FFFF00"/>
<path fill-rule="evenodd" clip-rule="evenodd" d="M12.381 13.3647C13.2625 13.379 14.1247 13.4126 14.9627 13.5659L14.9046 13.6713C14.1296 13.5276 13.2964 13.4797 12.3858 13.4797C11.2088 13.4701 10.0269 13.5803 8.9952 13.8726C8.67066 13.9636 8.13301 14.1697 8.07488 14.3422L8.01676 14.2463C8.03613 14.1409 8.35582 13.9301 8.96613 13.7672C10.148 13.4318 11.2524 13.3695 12.381 13.3647ZM12.4197 12.9238C13.3502 12.9229 14.2789 13.0031 15.1952 13.1634L15.1322 13.2736C14.2375 13.1113 13.3293 13.0327 12.4197 13.0388C11.2475 13.0388 10.0027 13.1251 8.86926 13.4509C8.50598 13.5563 7.87145 13.7863 7.85207 13.9636L7.79395 13.8582C7.80363 13.6953 8.35098 13.4797 8.84504 13.3407C9.98332 13.0101 11.233 12.9286 12.4197 12.9238Z" fill="#FFFF00"/>
<path fill-rule="evenodd" clip-rule="evenodd" d="M16.925 13.921L16.5471 14.5104L15.4476 13.5473L12.6092 11.6546L9.40262 9.91521L7.74121 9.35458L8.0948 8.70292L8.2159 8.64062L9.24762 8.89458L12.6576 10.634L14.6242 11.8606L16.2759 13.0346L16.9492 13.8012L16.925 13.921Z" fill="#FFFF00"/>
<path fill-rule="evenodd" clip-rule="evenodd" d="M7.68309 9.36765C7.97371 9.17598 10.1146 10.1152 12.3621 11.4568C14.5951 12.7985 16.7361 14.3127 16.5423 14.5954L16.4793 14.696L16.4503 14.7199C16.4551 14.7152 16.489 14.672 16.4503 14.5714C16.3534 14.2599 14.8325 13.062 12.3186 11.5574C9.86277 10.1151 7.81871 9.24307 7.62012 9.49223L7.68309 9.36765ZM17.0025 13.9149C17.1865 13.5508 15.2006 12.0702 12.7351 10.6279C10.2164 9.21432 8.39512 8.38057 8.0609 8.62973L7.99309 8.76869C7.99309 8.77348 7.99309 8.75911 8.01246 8.74473C8.07059 8.69682 8.1723 8.69682 8.2159 8.69682C8.78746 8.7064 10.4198 9.44911 12.7109 10.7477C13.7184 11.3227 16.954 13.3831 16.9395 13.9581C16.9395 14.006 16.9443 14.0156 16.925 14.0443L17.0073 13.9197L17.0025 13.9149Z" fill="#FFFF00"/>
<path d="M9.33105 12.0629C9.33182 12.4596 9.41213 12.8523 9.56733 13.2182C9.72253 13.584 9.94954 13.9158 10.2352 14.1942C10.5174 14.4777 10.8535 14.7031 11.2242 14.8575C11.5949 15.0119 11.9927 15.0922 12.3949 15.0938C13.2088 15.0937 13.9894 14.7738 14.5649 14.2045C14.8496 13.9244 15.0755 13.5916 15.2298 13.2249C15.3841 12.8583 15.4636 12.4651 15.4639 12.068V8.01999L9.33105 8.00977V12.0629Z" fill="white"/>
<path d="M9.44434 12.0679C9.44543 12.4485 9.52269 12.8251 9.67167 13.176C9.82065 13.5269 10.0384 13.8452 10.3123 14.1124C10.8624 14.6594 11.6094 14.9682 12.3893 14.971C13.1679 14.9715 13.9149 14.6663 14.4664 14.1226C14.7394 13.855 14.9562 13.5365 15.1042 13.1856C15.2523 12.8348 15.3288 12.4584 15.3292 12.0781V8.14258H9.45467V12.0679M14.1564 9.32325V11.8226L14.1512 12.0833C14.1529 12.3116 14.1081 12.5379 14.0193 12.7487C13.9305 12.9595 13.7996 13.1504 13.6345 13.3099C13.306 13.6361 12.86 13.8199 12.3945 13.821C11.9088 13.821 11.48 13.6166 11.1597 13.2997C10.83 12.9747 10.6441 12.5335 10.643 12.073V9.31303L14.1564 9.32325Z" fill="#FF0000"/>
<path d="M9.82715 9.16982C9.83232 8.88871 10.0338 8.82227 10.0338 8.82227C10.039 8.82227 10.256 8.89382 10.256 9.17493H9.82715" fill="#FFFF00"/>
<path d="M9.65103 8.82738L9.61486 9.14938H9.83186C9.83186 8.8836 10.0385 8.84271 10.0385 8.84271C10.0437 8.84271 10.2452 8.89893 10.2504 9.14938H10.4674L10.426 8.82227H9.65103V8.82738ZM9.59936 9.15449H10.4777C10.4932 9.15449 10.5087 9.16982 10.5087 9.19027C10.5087 9.21582 10.4932 9.23116 10.4777 9.23116H9.59936C9.58386 9.23116 9.56836 9.21582 9.56836 9.19027C9.56836 9.16982 9.58386 9.15449 9.60453 9.15449H9.59936Z" fill="#FFFF00"/>
<path d="M9.91953 9.15093C9.91953 8.98226 10.0384 8.93626 10.0384 8.93626C10.0384 8.93626 10.1572 8.98737 10.1572 9.15093H9.91953ZM9.61987 8.69093H10.462C10.4775 8.69093 10.493 8.71137 10.493 8.73182C10.493 8.74715 10.4775 8.76248 10.462 8.76248H9.61987C9.60437 8.76248 9.58887 8.74715 9.58887 8.7267C9.58887 8.71137 9.60437 8.69604 9.61987 8.69604V8.69093ZM9.64053 8.76759H10.4362C10.4517 8.76759 10.4672 8.78293 10.4672 8.80337C10.4672 8.82382 10.4517 8.83915 10.4362 8.83915H9.63537C9.6147 8.83915 9.60437 8.82382 9.60437 8.80337C9.60437 8.78293 9.6147 8.76759 9.63537 8.76759H9.64053ZM9.89887 8.22581H9.96087V8.2667H10.0074V8.22581H10.0745V8.27181H10.121V8.2207H10.183V8.32293C10.183 8.34337 10.1727 8.35359 10.1572 8.35359H9.92987C9.91437 8.35359 9.89887 8.34337 9.89887 8.32804V8.22581ZM10.1365 8.36381L10.152 8.69093H9.92987L9.94537 8.3587H10.1365" fill="#FFFF00"/>
<path d="M9.8678 8.51562V8.6894H9.66113V8.51562H9.8678Z" fill="#FFFF00"/>
<path d="M10.4157 8.51562V8.6894H10.209V8.51562H10.4157Z" fill="#FFFF00"/>
<path d="M9.625 8.38281H9.687V8.43392H9.7335V8.38281H9.7955V8.43392H9.842V8.38281H9.904V8.48504C9.904 8.50548 9.89367 8.5157 9.87817 8.5157H9.656C9.64778 8.5157 9.63989 8.51247 9.63408 8.50672C9.62827 8.50097 9.625 8.49317 9.625 8.48504V8.38281Z" fill="#FFFF00"/>
<path d="M10.1729 8.38281H10.2349V8.43392H10.2814V8.38281H10.3434V8.43392H10.3899V8.38281H10.4519V8.48504C10.4519 8.50548 10.4415 8.5157 10.426 8.5157H10.2039C10.1956 8.5157 10.1877 8.51247 10.1819 8.50672C10.1761 8.50097 10.1729 8.49317 10.1729 8.48504V8.38281Z" fill="#FFFF00"/>
<path d="M9.82715 11.537C9.83232 11.2559 10.0338 11.1895 10.0338 11.1895C10.039 11.1895 10.256 11.261 10.256 11.5421H9.82715" fill="#FFFF00"/>
<path d="M9.65103 11.1946L9.61486 11.5166H9.83186C9.83186 11.2508 10.0385 11.2099 10.0385 11.2099C10.0437 11.2099 10.2452 11.2661 10.2504 11.5166H10.4674L10.426 11.1895H9.65103V11.1946ZM9.59936 11.5217H10.4777C10.4932 11.5217 10.5087 11.537 10.5087 11.5575C10.5087 11.583 10.4932 11.5983 10.4777 11.5983H9.59936C9.58386 11.5983 9.56836 11.583 9.56836 11.5575C9.56836 11.537 9.58386 11.5217 9.60453 11.5217H9.59936Z" fill="#FFFF00"/>
<path d="M9.91953 11.5181C9.91953 11.3494 10.0384 11.3034 10.0384 11.3034C10.0384 11.3034 10.1572 11.3546 10.1572 11.5181H9.91953ZM9.61987 11.0581H10.462C10.4775 11.0581 10.493 11.0786 10.493 11.099C10.493 11.1143 10.4775 11.1297 10.462 11.1297H9.61987C9.60437 11.1297 9.58887 11.1143 9.58887 11.0939C9.58887 11.0786 9.60437 11.0632 9.61987 11.0632V11.0581ZM9.64053 11.1348H10.4362C10.4517 11.1348 10.4672 11.1501 10.4672 11.1706C10.4672 11.191 10.4517 11.2063 10.4362 11.2063H9.63537C9.6147 11.2063 9.60437 11.191 9.60437 11.1706C9.60437 11.1501 9.6147 11.1348 9.63537 11.1348H9.64053ZM9.89887 10.593H9.96087V10.6339H10.0074V10.593H10.0745V10.639H10.121V10.5879H10.183V10.6901C10.183 10.7106 10.1727 10.7208 10.1572 10.7208H9.92987C9.91437 10.7208 9.89887 10.7106 9.89887 10.6952V10.593ZM10.1365 10.731L10.152 11.0581H9.92987L9.94537 10.7259H10.1365" fill="#FFFF00"/>
<path d="M9.8678 10.8828V11.0566H9.66113V10.8828H9.8678Z" fill="#FFFF00"/>
<path d="M10.4157 10.8828V11.0566H10.209V10.8828H10.4157Z" fill="#FFFF00"/>
<path d="M9.625 10.75H9.687V10.8011H9.7335V10.75H9.7955V10.8011H9.842V10.75H9.904V10.8522C9.904 10.8727 9.89367 10.8829 9.87817 10.8829H9.656C9.64778 10.8829 9.63989 10.8797 9.63408 10.8739C9.62827 10.8682 9.625 10.8604 9.625 10.8522V10.75Z" fill="#FFFF00"/>
<path d="M10.1729 10.75H10.2349V10.8011H10.2814V10.75H10.3434V10.8011H10.3899V10.75H10.4519V10.8522C10.4519 10.8727 10.4415 10.8829 10.426 10.8829H10.2039C10.1956 10.8829 10.1877 10.8797 10.1819 10.8739C10.1761 10.8682 10.1729 10.8604 10.1729 10.8522V10.75Z" fill="#FFFF00"/>
<path d="M10.7591 14.0047C10.5611 13.803 10.6554 13.6147 10.6554 13.6147C10.659 13.6111 10.8633 13.5092 11.0649 13.7072L10.7627 14.0083" fill="#FFFF00"/>
<path d="M10.39 13.887L10.5955 14.1392L10.7484 13.9869C10.5578 13.7997 10.6741 13.6258 10.6741 13.6258C10.6777 13.6221 10.86 13.5203 11.0433 13.6932L11.1962 13.5408L10.9325 13.3394L10.3864 13.8834L10.39 13.887ZM10.5883 14.1537L11.2072 13.5372C11.2181 13.5263 11.24 13.5262 11.2547 13.5406C11.273 13.5586 11.2731 13.5803 11.2622 13.5912L10.6432 14.2077C10.6323 14.2186 10.6104 14.2187 10.5921 14.2007C10.5774 14.1863 10.5773 14.1646 10.5919 14.1501L10.5883 14.1537Z" fill="#FFFF00"/>
<path d="M10.8104 13.9253C10.6894 13.8064 10.7401 13.6906 10.7401 13.6906C10.7401 13.6906 10.8605 13.6432 10.9779 13.7584L10.8104 13.9253ZM10.2693 13.8115L10.8627 13.2203C10.8736 13.2095 10.8992 13.213 10.9139 13.2274C10.9249 13.2382 10.925 13.2599 10.914 13.2708L10.3206 13.8619C10.3097 13.8728 10.2878 13.8729 10.2731 13.8585C10.2621 13.8477 10.262 13.826 10.2729 13.8151L10.2693 13.8115ZM10.3388 13.851L10.8995 13.2925C10.9104 13.2816 10.9323 13.2815 10.947 13.2959C10.9617 13.3103 10.9617 13.332 10.9508 13.3429L10.3865 13.9051C10.3719 13.9196 10.3537 13.916 10.339 13.9016C10.3243 13.8872 10.3206 13.8692 10.3352 13.8547L10.3388 13.851ZM10.1323 13.2879L10.176 13.2444L10.2053 13.2732L10.2381 13.2406L10.2087 13.2118L10.2561 13.1646L10.289 13.197L10.3218 13.1644L10.2852 13.1284L10.3288 13.0849L10.4022 13.1569C10.4168 13.1713 10.4169 13.1858 10.406 13.1966L10.2458 13.3562C10.2348 13.3671 10.2166 13.3708 10.2056 13.36L10.1323 13.2879ZM10.3987 13.2183L10.6443 13.438L10.4877 13.5939L10.2604 13.3489L10.3951 13.2147" fill="#FFFF00"/>
<path d="M10.3195 13.5131L10.4441 13.6356L10.2985 13.7806L10.1738 13.6582L10.3195 13.5131Z" fill="#FFFF00"/>
<path d="M10.7052 13.1303L10.8298 13.2528L10.6842 13.3978L10.5596 13.2754L10.7052 13.1303Z" fill="#FFFF00"/>
<path d="M10.0527 13.5918L10.0964 13.5483L10.1331 13.5843L10.1658 13.5516L10.1292 13.5156L10.1729 13.4721L10.2095 13.5081L10.2423 13.4755L10.2056 13.4395L10.2493 13.396L10.3227 13.468C10.3373 13.4824 10.3374 13.4968 10.3264 13.5077L10.1699 13.6637C10.1641 13.6694 10.1562 13.6727 10.148 13.6727C10.1398 13.6728 10.1319 13.6696 10.1261 13.6638L10.0527 13.5918Z" fill="#FFFF00"/>
<path d="M10.4385 13.207L10.4822 13.1635L10.5188 13.1995L10.5516 13.1669L10.5149 13.1309L10.5586 13.0873L10.5953 13.1234L10.628 13.0907L10.5914 13.0547L10.6351 13.0112L10.7084 13.0832C10.7231 13.0976 10.7231 13.1121 10.7122 13.123L10.5556 13.2789C10.5498 13.2847 10.542 13.2879 10.5337 13.288C10.5255 13.288 10.5176 13.2848 10.5118 13.2791L10.4385 13.207Z" fill="#FFFF00"/>
<path d="M12.1885 9.16982C12.1936 8.88871 12.3951 8.82227 12.3951 8.82227C12.4003 8.82227 12.6173 8.89382 12.6173 9.17493H12.1885" fill="#FFFF00"/>
<path d="M12.0124 8.82738L11.9762 9.14938H12.1932C12.1932 8.8836 12.3999 8.84271 12.3999 8.84271C12.405 8.84271 12.6065 8.89893 12.6117 9.14938H12.8287L12.7874 8.82227H12.0124V8.82738ZM11.9607 9.15449H12.839C12.8545 9.15449 12.87 9.16982 12.87 9.19027C12.87 9.21582 12.8545 9.23116 12.839 9.23116H11.9607C11.9452 9.23116 11.9297 9.21582 11.9297 9.19027C11.9297 9.16982 11.9452 9.15449 11.9659 9.15449H11.9607Z" fill="#FFFF00"/>
<path d="M12.2809 9.15093C12.2809 8.98226 12.3997 8.93626 12.3997 8.93626C12.3997 8.93626 12.5185 8.98737 12.5185 9.15093H12.2809ZM11.9812 8.69093H12.8234C12.8389 8.69093 12.8544 8.71137 12.8544 8.73182C12.8544 8.74715 12.8389 8.76248 12.8234 8.76248H11.9812C11.9657 8.76248 11.9502 8.74715 11.9502 8.7267C11.9502 8.71137 11.9657 8.69604 11.9812 8.69604V8.69093ZM12.0019 8.76759H12.7975C12.813 8.76759 12.8285 8.78293 12.8285 8.80337C12.8285 8.82382 12.813 8.83915 12.7975 8.83915H11.9967C11.976 8.83915 11.9657 8.82382 11.9657 8.80337C11.9657 8.78293 11.976 8.76759 11.9967 8.76759H12.0019ZM12.2602 8.22581H12.3222V8.2667H12.3687V8.22581H12.4359V8.27181H12.4824V8.2207H12.5444V8.32293C12.5444 8.34337 12.534 8.35359 12.5185 8.35359H12.2912C12.2757 8.35359 12.2602 8.34337 12.2602 8.32804V8.22581ZM12.4979 8.36381L12.5134 8.69093H12.2912L12.3067 8.3587H12.4979" fill="#FFFF00"/>
<path d="M12.2291 8.51562V8.6894H12.0225V8.51562H12.2291Z" fill="#FFFF00"/>
<path d="M12.777 8.51562V8.6894H12.5703V8.51562H12.777Z" fill="#FFFF00"/>
<path d="M11.9863 8.38281H12.0483V8.43392H12.0948V8.38281H12.1568V8.43392H12.2033V8.38281H12.2653V8.48504C12.2653 8.50548 12.255 8.5157 12.2395 8.5157H12.0173C12.0091 8.5157 12.0012 8.51247 11.9954 8.50672C11.9896 8.50097 11.9863 8.49317 11.9863 8.48504V8.38281Z" fill="#FFFF00"/>
<path d="M12.5342 8.38281H12.5962V8.43392H12.6427V8.38281H12.7047V8.43392H12.7512V8.38281H12.8132V8.48504C12.8132 8.50548 12.8028 8.5157 12.7873 8.5157H12.5652C12.557 8.5157 12.5491 8.51247 12.5433 8.50672C12.5374 8.50097 12.5342 8.49317 12.5342 8.48504V8.38281Z" fill="#FFFF00"/>
<path d="M14.9619 9.16982C14.9567 8.88871 14.7552 8.82227 14.7552 8.82227C14.7501 8.82227 14.5331 8.89382 14.5331 9.17493H14.9619" fill="#FFFF00"/>
<path d="M15.138 8.82738L15.1742 9.14938H14.9572C14.9572 8.8836 14.7505 8.84271 14.7505 8.84271C14.7454 8.84271 14.5439 8.89893 14.5387 9.14938H14.3217L14.363 8.82227H15.138V8.82738ZM15.1897 9.15449H14.3114C14.2959 9.15449 14.2804 9.16982 14.2804 9.19027C14.2804 9.21582 14.2959 9.23116 14.3114 9.23116H15.1897C15.2052 9.23116 15.2207 9.21582 15.2207 9.19027C15.2207 9.16982 15.2052 9.15449 15.1845 9.15449H15.1897Z" fill="#FFFF00"/>
<path d="M14.8695 9.15093C14.8695 8.98226 14.7507 8.93626 14.7507 8.93626C14.7507 8.93626 14.6319 8.98737 14.6319 9.15093H14.8695ZM15.1692 8.69093H14.327C14.3115 8.69093 14.296 8.71137 14.296 8.73182C14.296 8.74715 14.3115 8.76248 14.327 8.76248H15.1692C15.1847 8.76248 15.2002 8.74715 15.2002 8.7267C15.2002 8.71137 15.1847 8.69604 15.1692 8.69604V8.69093ZM15.1485 8.76759H14.3529C14.3374 8.76759 14.3219 8.78293 14.3219 8.80337C14.3219 8.82382 14.3374 8.83915 14.3529 8.83915H15.1537C15.1744 8.83915 15.1847 8.82382 15.1847 8.80337C15.1847 8.78293 15.1744 8.76759 15.1537 8.76759H15.1485ZM14.8902 8.22581H14.8282V8.2667H14.7817V8.22581H14.7145V8.27181H14.668V8.2207H14.606V8.32293C14.606 8.34337 14.6164 8.35359 14.6319 8.35359H14.8592C14.8747 8.35359 14.8902 8.34337 14.8902 8.32804V8.22581ZM14.6525 8.36381L14.637 8.69093H14.8592L14.8437 8.3587H14.6525" fill="#FFFF00"/>
<path d="M14.9213 8.51562V8.6894H15.1279V8.51562H14.9213Z" fill="#FFFF00"/>
<path d="M14.3734 8.51562V8.6894H14.5801V8.51562H14.3734Z" fill="#FFFF00"/>
<path d="M15.1641 8.38281H15.1021V8.43392H15.0556V8.38281H14.9936V8.43392H14.9471V8.38281H14.8851V8.48504C14.8851 8.50548 14.8954 8.5157 14.9109 8.5157H15.1331C15.1413 8.5157 15.1492 8.51247 15.155 8.50672C15.1608 8.50097 15.1641 8.49317 15.1641 8.48504V8.38281Z" fill="#FFFF00"/>
<path d="M14.6162 8.38281H14.5542V8.43392H14.5077V8.38281H14.4457V8.43392H14.3992V8.38281H14.3372V8.48504C14.3372 8.50548 14.3475 8.5157 14.363 8.5157H14.5852C14.5934 8.5157 14.6013 8.51247 14.6071 8.50672C14.6129 8.50097 14.6162 8.49317 14.6162 8.48504V8.38281Z" fill="#FFFF00"/>
<path d="M14.9619 11.537C14.9567 11.2559 14.7552 11.1895 14.7552 11.1895C14.7501 11.1895 14.5331 11.261 14.5331 11.5421H14.9619" fill="#FFFF00"/>
<path d="M15.138 11.1946L15.1742 11.5166H14.9572C14.9572 11.2508 14.7505 11.2099 14.7505 11.2099C14.7454 11.2099 14.5439 11.2661 14.5387 11.5166H14.3217L14.363 11.1895H15.138V11.1946ZM15.1897 11.5217H14.3114C14.2959 11.5217 14.2804 11.537 14.2804 11.5575C14.2804 11.583 14.2959 11.5983 14.3114 11.5983H15.1897C15.2052 11.5983 15.2207 11.583 15.2207 11.5575C15.2207 11.537 15.2052 11.5217 15.1845 11.5217H15.1897Z" fill="#FFFF00"/>
<path d="M14.8695 11.5181C14.8695 11.3494 14.7507 11.3034 14.7507 11.3034C14.7507 11.3034 14.6319 11.3546 14.6319 11.5181H14.8695ZM15.1692 11.0581H14.327C14.3115 11.0581 14.296 11.0786 14.296 11.099C14.296 11.1143 14.3115 11.1297 14.327 11.1297H15.1692C15.1847 11.1297 15.2002 11.1143 15.2002 11.0939C15.2002 11.0786 15.1847 11.0632 15.1692 11.0632V11.0581ZM15.1485 11.1348H14.3529C14.3374 11.1348 14.3219 11.1501 14.3219 11.1706C14.3219 11.191 14.3374 11.2063 14.3529 11.2063H15.1537C15.1744 11.2063 15.1847 11.191 15.1847 11.1706C15.1847 11.1501 15.1744 11.1348 15.1537 11.1348H15.1485ZM14.8902 10.593H14.8282V10.6339H14.7817V10.593H14.7145V10.639H14.668V10.5879H14.606V10.6901C14.606 10.7106 14.6164 10.7208 14.6319 10.7208H14.8592C14.8747 10.7208 14.8902 10.7106 14.8902 10.6952V10.593ZM14.6525 10.731L14.637 11.0581H14.8592L14.8437 10.7259H14.6525" fill="#FFFF00"/>
<path d="M14.9213 10.8828V11.0566H15.1279V10.8828H14.9213Z" fill="#FFFF00"/>
<path d="M14.3734 10.8828V11.0566H14.5801V10.8828H14.3734Z" fill="#FFFF00"/>
<path d="M15.1641 10.75H15.1021V10.8011H15.0556V10.75H14.9936V10.8011H14.9471V10.75H14.8851V10.8522C14.8851 10.8727 14.8954 10.8829 14.9109 10.8829H15.1331C15.1413 10.8829 15.1492 10.8797 15.155 10.8739C15.1608 10.8682 15.1641 10.8604 15.1641 10.8522V10.75Z" fill="#FFFF00"/>
<path d="M14.6162 10.75H14.5542V10.8011H14.5077V10.75H14.4457V10.8011H14.3992V10.75H14.3372V10.8522C14.3372 10.8727 14.3475 10.8829 14.363 10.8829H14.5852C14.5934 10.8829 14.6013 10.8797 14.6071 10.8739C14.6129 10.8682 14.6162 10.8604 14.6162 10.8522V10.75Z" fill="#FFFF00"/>
<path d="M14.03 14.0047C14.228 13.803 14.1337 13.6147 14.1337 13.6147C14.13 13.6111 13.9258 13.5092 13.7242 13.7072L14.0263 14.0083" fill="#FFFF00"/>
<path d="M14.399 13.887L14.1936 14.1392L14.0406 13.9869C14.2313 13.7997 14.115 13.6258 14.115 13.6258C14.1113 13.6221 13.929 13.5203 13.7457 13.6932L13.5928 13.5408L13.8566 13.3394L14.4027 13.8834L14.399 13.887ZM14.2008 14.1537L13.5819 13.5372C13.571 13.5263 13.549 13.5262 13.5344 13.5406C13.5161 13.5586 13.516 13.5803 13.5269 13.5912L14.1458 14.2077C14.1567 14.2186 14.1787 14.2187 14.197 14.2007C14.2117 14.1863 14.2117 14.1646 14.1972 14.1501L14.2008 14.1537Z" fill="#FFFF00"/>
<path d="M13.9787 13.9253C14.0997 13.8064 14.0489 13.6906 14.0489 13.6906C14.0489 13.6906 13.9285 13.6432 13.8112 13.7584L13.9787 13.9253ZM14.5198 13.8115L13.9263 13.2203C13.9154 13.2095 13.8898 13.213 13.8752 13.2274C13.8642 13.2382 13.8641 13.2599 13.875 13.2708L14.4685 13.8619C14.4794 13.8728 14.5013 13.8729 14.516 13.8585C14.527 13.8477 14.527 13.826 14.5161 13.8151L14.5198 13.8115ZM14.4502 13.851L13.8896 13.2925C13.8786 13.2816 13.8567 13.2815 13.8421 13.2959C13.8274 13.3103 13.8273 13.332 13.8382 13.3429L14.4026 13.9051C14.4171 13.9196 14.4354 13.916 14.4501 13.9016C14.4647 13.8872 14.4684 13.8692 14.4539 13.8547L14.4502 13.851ZM14.6568 13.2879L14.6131 13.2444L14.5838 13.2732L14.551 13.2406L14.5803 13.2118L14.533 13.1646L14.5 13.197L14.4672 13.1644L14.5039 13.1284L14.4602 13.0849L14.3869 13.1569C14.3722 13.1713 14.3722 13.1858 14.3831 13.1966L14.5433 13.3562C14.5542 13.3671 14.5725 13.3708 14.5835 13.36L14.6568 13.2879ZM14.3903 13.2183L14.1448 13.438L14.3013 13.5939L14.5287 13.3489L14.394 13.2147" fill="#FFFF00"/>
<path d="M14.4696 13.5131L14.345 13.6356L14.4906 13.7806L14.6152 13.6582L14.4696 13.5131Z" fill="#FFFF00"/>
<path d="M14.0839 13.1303L13.9592 13.2528L14.1048 13.3978L14.2295 13.2754L14.0839 13.1303Z" fill="#FFFF00"/>
<path d="M14.7363 13.5918L14.6926 13.5483L14.656 13.5843L14.6232 13.5516L14.6599 13.5156L14.6162 13.4721L14.5795 13.5081L14.5468 13.4755L14.5834 13.4395L14.5397 13.396L14.4664 13.468C14.4517 13.4824 14.4517 13.4968 14.4626 13.5077L14.6192 13.6637C14.625 13.6694 14.6328 13.6727 14.6411 13.6727C14.6493 13.6728 14.6572 13.6696 14.663 13.6638L14.7363 13.5918Z" fill="#FFFF00"/>
<path d="M14.3506 13.207L14.3069 13.1635L14.2702 13.1995L14.2375 13.1669L14.2741 13.1309L14.2304 13.0873L14.1938 13.1234L14.161 13.0907L14.1977 13.0547L14.154 13.0112L14.0807 13.0832C14.066 13.0976 14.066 13.1121 14.0769 13.123L14.2334 13.2789C14.2392 13.2847 14.2471 13.2879 14.2553 13.288C14.2635 13.288 14.2714 13.2848 14.2773 13.2791L14.3506 13.207Z" fill="#FFFF00"/>
<path d="M12.0176 11.6243C12.0167 11.7321 12.0573 11.8363 12.1313 11.9156C12.1658 11.9538 12.2079 11.9844 12.2551 12.0055C12.3022 12.0266 12.3533 12.0378 12.4051 12.0383C12.5136 12.0383 12.6118 11.9872 12.6789 11.9156C12.7529 11.8363 12.7935 11.7321 12.7926 11.6243V11.0723H12.0176V11.6243Z" fill="#003399"/>
<path d="M12.1986 11.3584C12.2414 11.3584 12.2761 11.3241 12.2761 11.2817C12.2761 11.2394 12.2414 11.2051 12.1986 11.2051C12.1558 11.2051 12.1211 11.2394 12.1211 11.2817C12.1211 11.3241 12.1558 11.3584 12.1986 11.3584Z" fill="white"/>
<path d="M12.6273 11.3584C12.6701 11.3584 12.7048 11.3241 12.7048 11.2817C12.7048 11.2394 12.6701 11.2051 12.6273 11.2051C12.5845 11.2051 12.5498 11.2394 12.5498 11.2817C12.5498 11.3241 12.5845 11.3584 12.6273 11.3584Z" fill="white"/>
<path d="M12.4105 11.5635C12.4533 11.5635 12.488 11.5292 12.488 11.4868C12.488 11.4445 12.4533 11.4102 12.4105 11.4102C12.3677 11.4102 12.333 11.4445 12.333 11.4868C12.333 11.5292 12.3677 11.5635 12.4105 11.5635Z" fill="white"/>
<path d="M12.1986 11.7783C12.2414 11.7783 12.2761 11.744 12.2761 11.7017C12.2761 11.6593 12.2414 11.625 12.1986 11.625C12.1558 11.625 12.1211 11.6593 12.1211 11.7017C12.1211 11.744 12.1558 11.7783 12.1986 11.7783Z" fill="white"/>
<path d="M12.6273 11.7783C12.6701 11.7783 12.7048 11.744 12.7048 11.7017C12.7048 11.6593 12.6701 11.625 12.6273 11.625C12.5845 11.625 12.5498 11.6593 12.5498 11.7017C12.5498 11.744 12.5845 11.7783 12.6273 11.7783Z" fill="white"/>
<path d="M12.0176 10.2942C12.0167 10.4021 12.0573 10.5062 12.1313 10.5855C12.1658 10.6237 12.2079 10.6543 12.2551 10.6754C12.3022 10.6966 12.3533 10.7077 12.4051 10.7082C12.5136 10.7082 12.6118 10.6571 12.6789 10.5855C12.7529 10.5062 12.7935 10.4021 12.7926 10.2942V9.74219H12.0176V10.2942Z" fill="#003399"/>
<path d="M12.1986 10.0283C12.2414 10.0283 12.2761 9.99401 12.2761 9.95167C12.2761 9.90932 12.2414 9.875 12.1986 9.875C12.1558 9.875 12.1211 9.90932 12.1211 9.95167C12.1211 9.99401 12.1558 10.0283 12.1986 10.0283Z" fill="white"/>
<path d="M12.6273 10.0283C12.6701 10.0283 12.7048 9.99401 12.7048 9.95167C12.7048 9.90932 12.6701 9.875 12.6273 9.875C12.5845 9.875 12.5498 9.90932 12.5498 9.95167C12.5498 9.99401 12.5845 10.0283 12.6273 10.0283Z" fill="white"/>
<path d="M12.4105 10.2334C12.4533 10.2334 12.488 10.1991 12.488 10.1567C12.488 10.1144 12.4533 10.0801 12.4105 10.0801C12.3677 10.0801 12.333 10.1144 12.333 10.1567C12.333 10.1991 12.3677 10.2334 12.4105 10.2334Z" fill="white"/>
<path d="M12.1986 10.4483C12.2414 10.4483 12.2761 10.4139 12.2761 10.3716C12.2761 10.3292 12.2414 10.2949 12.1986 10.2949C12.1558 10.2949 12.1211 10.3292 12.1211 10.3716C12.1211 10.4139 12.1558 10.4483 12.1986 10.4483Z" fill="white"/>
<path d="M12.6273 10.4483C12.6701 10.4483 12.7048 10.4139 12.7048 10.3716C12.7048 10.3292 12.6701 10.2949 12.6273 10.2949C12.5845 10.2949 12.5498 10.3292 12.5498 10.3716C12.5498 10.4139 12.5845 10.4483 12.6273 10.4483Z" fill="white"/>
<path d="M10.9424 11.6243C10.9415 11.7321 10.9821 11.8363 11.0561 11.9156C11.0906 11.9538 11.1327 11.9844 11.1799 12.0055C11.2271 12.0266 11.2781 12.0378 11.3299 12.0383C11.4384 12.0383 11.5366 11.9872 11.6037 11.9156C11.6777 11.8363 11.7183 11.7321 11.7174 11.6243V11.0723H10.9424V11.6243Z" fill="#003399"/>
<path d="M11.1234 11.3584C11.1662 11.3584 11.2009 11.3241 11.2009 11.2817C11.2009 11.2394 11.1662 11.2051 11.1234 11.2051C11.0806 11.2051 11.0459 11.2394 11.0459 11.2817C11.0459 11.3241 11.0806 11.3584 11.1234 11.3584Z" fill="white"/>
<path d="M11.5521 11.3584C11.5949 11.3584 11.6296 11.3241 11.6296 11.2817C11.6296 11.2394 11.5949 11.2051 11.5521 11.2051C11.5093 11.2051 11.4746 11.2394 11.4746 11.2817C11.4746 11.3241 11.5093 11.3584 11.5521 11.3584Z" fill="white"/>
<path d="M11.3353 11.5635C11.3781 11.5635 11.4128 11.5292 11.4128 11.4868C11.4128 11.4445 11.3781 11.4102 11.3353 11.4102C11.2925 11.4102 11.2578 11.4445 11.2578 11.4868C11.2578 11.5292 11.2925 11.5635 11.3353 11.5635Z" fill="white"/>
<path d="M11.1234 11.7783C11.1662 11.7783 11.2009 11.744 11.2009 11.7017C11.2009 11.6593 11.1662 11.625 11.1234 11.625C11.0806 11.625 11.0459 11.6593 11.0459 11.7017C11.0459 11.744 11.0806 11.7783 11.1234 11.7783Z" fill="white"/>
<path d="M11.5521 11.7783C11.5949 11.7783 11.6296 11.744 11.6296 11.7017C11.6296 11.6593 11.5949 11.625 11.5521 11.625C11.5093 11.625 11.4746 11.6593 11.4746 11.7017C11.4746 11.744 11.5093 11.7783 11.5521 11.7783Z" fill="white"/>
<path d="M13.0918 11.6243C13.0909 11.7321 13.1315 11.8363 13.2055 11.9156C13.24 11.9538 13.2822 11.9844 13.3293 12.0055C13.3765 12.0266 13.4276 12.0378 13.4793 12.0383C13.5878 12.0383 13.686 11.9872 13.7531 11.9156C13.8271 11.8363 13.8678 11.7321 13.8668 11.6243V11.0723H13.0918V11.6243Z" fill="#003399"/>
<path d="M13.2728 11.3584C13.3156 11.3584 13.3503 11.3241 13.3503 11.2817C13.3503 11.2394 13.3156 11.2051 13.2728 11.2051C13.23 11.2051 13.1953 11.2394 13.1953 11.2817C13.1953 11.3241 13.23 11.3584 13.2728 11.3584Z" fill="white"/>
<path d="M13.7015 11.3584C13.7443 11.3584 13.779 11.3241 13.779 11.2817C13.779 11.2394 13.7443 11.2051 13.7015 11.2051C13.6587 11.2051 13.624 11.2394 13.624 11.2817C13.624 11.3241 13.6587 11.3584 13.7015 11.3584Z" fill="white"/>
<path d="M13.4847 11.5635C13.5275 11.5635 13.5622 11.5292 13.5622 11.4868C13.5622 11.4445 13.5275 11.4102 13.4847 11.4102C13.4419 11.4102 13.4072 11.4445 13.4072 11.4868C13.4072 11.5292 13.4419 11.5635 13.4847 11.5635Z" fill="white"/>
<path d="M13.2728 11.7783C13.3156 11.7783 13.3503 11.744 13.3503 11.7017C13.3503 11.6593 13.3156 11.625 13.2728 11.625C13.23 11.625 13.1953 11.6593 13.1953 11.7017C13.1953 11.744 13.23 11.7783 13.2728 11.7783Z" fill="white"/>
<path d="M13.7015 11.7783C13.7443 11.7783 13.779 11.744 13.779 11.7017C13.779 11.6593 13.7443 11.625 13.7015 11.625C13.6587 11.625 13.624 11.6593 13.624 11.7017C13.624 11.744 13.6587 11.7783 13.7015 11.7783Z" fill="white"/>
<path d="M12.0176 12.9426C12.0167 13.0505 12.0573 13.1547 12.1313 13.234C12.1658 13.2721 12.2079 13.3028 12.2551 13.3239C12.3022 13.345 12.3533 13.3562 12.4051 13.3566C12.5136 13.3566 12.6118 13.3055 12.6789 13.234C12.7529 13.1547 12.7935 13.0505 12.7926 12.9426V12.3906H12.0176V12.9426Z" fill="#003399"/>
<path d="M12.1986 12.6768C12.2414 12.6768 12.2761 12.6424 12.2761 12.6001C12.2761 12.5578 12.2414 12.5234 12.1986 12.5234C12.1558 12.5234 12.1211 12.5578 12.1211 12.6001C12.1211 12.6424 12.1558 12.6768 12.1986 12.6768Z" fill="white"/>
<path d="M12.6273 12.6768C12.6701 12.6768 12.7048 12.6424 12.7048 12.6001C12.7048 12.5578 12.6701 12.5234 12.6273 12.5234C12.5845 12.5234 12.5498 12.5578 12.5498 12.6001C12.5498 12.6424 12.5845 12.6768 12.6273 12.6768Z" fill="white"/>
<path d="M12.4105 12.8818C12.4533 12.8818 12.488 12.8475 12.488 12.8052C12.488 12.7628 12.4533 12.7285 12.4105 12.7285C12.3677 12.7285 12.333 12.7628 12.333 12.8052C12.333 12.8475 12.3677 12.8818 12.4105 12.8818Z" fill="white"/>
<path d="M12.1986 13.0967C12.2414 13.0967 12.2761 13.0624 12.2761 13.02C12.2761 12.9777 12.2414 12.9434 12.1986 12.9434C12.1558 12.9434 12.1211 12.9777 12.1211 13.02C12.1211 13.0624 12.1558 13.0967 12.1986 13.0967Z" fill="white"/>
<path d="M12.6273 13.0967C12.6701 13.0967 12.7048 13.0624 12.7048 13.02C12.7048 12.9777 12.6701 12.9434 12.6273 12.9434C12.5845 12.9434 12.5498 12.9777 12.5498 13.02C12.5498 13.0624 12.5845 13.0967 12.6273 13.0967Z" fill="white"/>
</g>
<defs>
<clipPath id="clip0_172_1373">
<rect width="31" height="23" fill="white"/>
</clipPath>
</defs>
</svg>
